<svg xmlns="http://www.w3.org/2000/svg" viewBox="0 0 24 24" stroke-width="1.5" stroke="currentColor" fill="none" stroke-linecap="round" stroke-linejoin="round">
  <title>AR MirZA Logo</title>
  <path stroke="none" d="M0 0h24v24H0z" fill="none" />
  <path d="M6 3h12a2 2 0 0 1 2 2v14a2 2 0 0 1 -2 2h-12a2 2 0 0 1 -2 -2v-14a2 2 0 0 1 2 -2z" stroke="#0284c7" />
  <path d="M6 3v18" stroke="#0284c7" />
  <path fill="#ef4444" stroke="#ef4444" stroke-width="0.5" d="M13 15.9l-1.4-1.3c-2-1.8-3.3-3-3.3-4.4 0-1.2.9-2.1 2.1-2.1.7 0 1.3.3 1.7.8.4-.5 1-.8 1.7-.8 1.2 0 2.1.9 2.1 2.1 0 1.4-1.3 2.6-3.3 4.4l-1.4 1.3z" />
</svg>